PathFileType	3	(X/Y/Z)	D:\minhoCalibration\240510\subject1_KPNP\preferred\preferred09.trc
DataRate	CameraRate	NumFrames	NumMarkers	Units	OrigDataRate	OrigDataStartFrame	OrigNumFrames
200.0	200.0	27	10	mm	200.0	421	215	
Frame#	Time	Left_Ankle_Outer1			Left_Ankle_Inner1			Left_Knee_Outer1			Left_Knee_Inner1			Left_Wrist1			Right_Wrist1			Right_Knee_Inner1			Right_Knee_Outer1			Right_Ankle_Inner1			Right_Ankle_Outer1			
		X1	Y1	Z1	X2	Y2	Z2	X3	Y3	Z3	X4	Y4	Z4	X5	Y5	Z5	X6	Y6	Z6	X7	Y7	Z7	X8	Y8	Z8	X9	Y9	Z9	X10	Y10	Z10	
421	2.095	-441.43103	137.91226	-577.53442	-487.64502	150.24983	-545.97632	-313.35489	565.20953	-472.18036	-420.35913	544.9671	-442.79861	-309.68842	1021.0867	-640.48438	-651.34082	1081.6266	-533.79272	-661.38641	696.34369	-249.93658	-778.98993	743.6712	-284.54416	-672.47034	613.22943	-671.93488	-775.9267	610.70569	-698.49622
422	2.1	-441.2587	140.4696	-577.24957	-485.37314	152.7438	-542.81189	-308.42365	567.30634	-476.69489	-413.8085	547.89014	-442.64655	-309.41016	1023.0191	-649.96472	-645.72528	1088.4423	-525.66315	-642.81158	710.40723	-231.7776	-761.76825	758.82837	-259.82553	-677.55621	635.12964	-652.60022	-782.05493	634.08844	-674.0423
423	2.105	-441.41885	142.99467	-576.86493	-484.79523	156.13319	-541.59418	-303.3504	569.40491	-481.18417	-407.22202	550.21008	-442.2402	-310.09985	1024.4642	-659.16083	-639.93964	1095.0223	-517.96411	-623.34039	725.0022	-214.43639	-743.33112	775.33673	-236.1618	-681.70361	656.18256	-633.03497	-788.25507	657.479	-648.44232
424	2.11	-442.09979	145.19003	-575.9632	-484.10178	158.40491	-539.13837	-299.00119	571.12817	-485.61169	-400.47464	552.50873	-442.13358	-311.08725	1025.524	-668.63745	-633.73834	1101.1947	-510.52725	-603.00391	740.06042	-198.03729	-723.12695	792.04321	-213.90392	-687.24384	677.13483	-612.63934	-795.58502	680.32703	-620.58252
425	2.115	-442.64972	147.55287	-575.55219	-483.67062	161.20351	-537.33807	-295.01459	572.67889	-489.97827	-394.16217	554.21008	-441.84677	-313.46628	1026.1742	-677.23761	-627.17639	1107.1831	-504.31885	-581.92499	755.00684	-183.01965	-702.02277	810.87854	-191.66699	-693.67694	697.04034	-590.93378	-797.73688	703.40338	-596.76221
426	2.12	-443.57727	149.45657	-574.54132	-483.29782	163.07448	-534.70129	-291.64658	573.83179	-494.30273	-387.91107	555.89093	-441.61249	-316.23965	1026.4027	-685.97052	-621.21625	1113.7042	-497.3392	-560.07184	770.08191	-169.6571	-679.06049	829.79083	-171.21141	-700.77997	716.36121	-568.22675	-808.75989	726.9715	-562.19165
427	2.125	-444.88876	150.74132	-573.00757	-483.32645	165.00079	-532.22742	-288.71021	574.86371	-498.59607	-382.40317	556.98969	-441.78256	-319.40942	1026.3823	-694.81	-614.52856	1118.6799	-492.00415	-537.6676	785.36646	-157.9684	-654.23523	849.97729	-152.40387	-708.41266	735.05817	-544.68652	-812.40985	748.58502	-533.91394
428	2.13	-445.89029	152.01909	-571.92078	-483.6098	166.33582	-529.46509	-286.55597	575.37372	-502.78622	-377.23953	558.25	-441.87546	-323.85956	1025.8129	-702.63519	-607.77716	1124.4132	-486.12762	-515.03979	800.53467	-148.43604	-626.98315	869.1712	-136.16974	-716.32428	752.63257	-519.43878	-816.92688	771.31897	-502.33554
429	2.135	-447.36987	152.62881	-570.39355	-483.76877	167.0453	-526.97827	-285.15472	575.51257	-506.76883	-373.06613	558.37549	-442.52921	-328.89517	1025.0536	-709.92365	-600.81714	1129.6652	-481.32422	-491.89273	815.5863	-140.17603	-599.87573	889.72205	-121.38256	-724.15161	769.42871	-493.12259	-822.83221	791.8067	-468.29645
430	2.14	-449.09595	153.01079	-568.79669	-484.42636	167.53545	-524.30835	-284.50806	575.28247	-510.56354	-369.32407	558.10107	-443.96951	-334.59616	1024.0397	-716.53406	-594.87244	1135.3806	-475.93713	-468.82629	830.33875	-133.65781	-571.17041	909.50812	-109.97693	-732.19177	784.77673	-465.16574	-827.48499	809.74146	-434.7634
431	2.145	-450.94485	153.23299	-567.29376	-485.45743	167.86232	-521.77112	-284.51013	574.72699	-513.87097	-366.32645	557.61664	-445.6987	-341.00662	1022.4487	-722.19275	-588.27783	1140.7642	-471.56223	-446.00076	844.65625	-128.67709	-542.43524	929.35272	-100.57627	-741.00647	799.03662	-435.03275	-831.73541	830.40002	-395.0575
432	2.15	-453.15497	153.30304	-565.80737	-486.98825	168.24655	-519.74945	-284.9183	574.0025	-516.81671	-364.83319	557.16193	-446.13596	-347.33401	1020.7186	-727.38458	-581.50946	1145.4844	-467.89566	-423.44589	858.52521	-125.65804	-513.11627	948.33521	-93.779861	-748.90582	812.40637	-402.54257	-834.4389	849.00751	-354.64948
433	2.155	-455.89014	153.16878	-564.18451	-488.81158	168.25932	-517.52734	-286.06952	573.02124	-519.04077	-364.91888	557.36993	-443.66382	-353.76096	1018.6554	-732.00604	-574.62921	1150.5406	-464.16269	-402.03571	871.83752	-123.30535	-483.92511	966.2298	-89.740356	-755.89825	824.88226	-367.35999	-834.77411	867.32727	-313.28281
434	2.16	-458.62021	153.21152	-563.30298	-490.91101	168.00204	-515.67352	-287.24673	572.16479	-520.76648	-364.53723	556.64221	-444.67816	-360.44077	1016.2456	-735.68665	-568.16241	1156.067	-461.05612	-381.32184	884.84064	-122.37629	-455.4603	983.37036	-87.883232	-761.41962	836.62622	-329.21234	-833.21948	884.98663	-269.17316
435	2.165	-461.79401	153.0623	-562.14404	-493.46234	167.70753	-514.22729	-289.57742	570.69482	-521.34955	-365.47189	556.19177	-444.28387	-367.13547	1013.5638	-738.7099	-562.07898	1161.4368	-458.45615	-362.01273	897.00958	-122.3199	-427.97134	999.29919	-88.398735	-764.84821	847.82935	-287.92062	-828.54492	901.99921	-223.29359
436	2.17	-465.18069	152.70898	-561.02087	-496.48486	167.44821	-512.95184	-291.63232	570.15033	-521.31409	-367.18234	555.73944	-443.61188	-373.82812	1010.5892	-740.99286	-556.09363	1166.7197	-456.08606	-343.96194	908.70947	-123.10046	-401.39908	1013.5463	-91.897415	-765.53247	858.69794	-243.43886	-820.46497	918.66412	-175.58299
437	2.175	-468.49426	152.22047	-559.86438	-499.4967	166.86465	-511.56442	-294.29398	569.32812	-520.50195	-370.21051	555.61572	-441.54025	-380.38327	1007.5142	-742.55194	-550.55524	1172.1947	-454.05682	-327.03479	919.91699	-124.50306	-377.86176	1026.8607	-95.891899	-762.81787	869.44116	-195.89255	-808.38892	934.90533	-127.34838
438	2.18	-471.83527	151.69818	-558.69348	-502.66592	166.25333	-510.41718	-297.01559	568.74286	-519.05646	-372.7431	555.43561	-440.67621	-386.80524	1004.4142	-743.61676	-545.17859	1176.8967	-453.32263	-311.76144	930.70447	-126.58499	-356.32126	1038.5977	-101.63721	-755.9765	880.41681	-146.90631	-792.49567	951.45392	-77.185425
439	2.185	-475.13351	151.15707	-557.4411	-505.79309	165.44785	-509.16785	-299.67014	568.49377	-517.10211	-376.39249	555.30792	-437.75143	-392.9444	1001.2367	-744.45343	-540.27179	1181.8401	-452.53488	-297.55276	940.65588	-128.87341	-337.53882	1049.0806	-108.18483	-744.77759	890.89441	-94.164856	-772.55884	968.09485	-25.901855
440	2.19	-478.27191	150.59995	-556.18152	-508.82382	164.27032	-507.86316	-302.34073	567.84052	-514.72028	-379.61417	554.93854	-437.21597	-398.3736	998.61444	-744.65051	-535.78473	1185.7863	-452.60358	-285.77206	950.0423	-131.24498	-321.86798	1058.3931	-115.0213	-728.32672	901.84363	-39.334122	-747.40601	984.28961	24.574615
441	2.195	-481.31439	149.94083	-554.82495	-511.60651	163.44983	-506.54929	-305.25598	567.15942	-511.83069	-383.86572	554.06641	-435.29065	-403.52298	995.93561	-744.29852	-531.88788	1189.2147	-453.31058	-275.82727	958.94446	-134.00903	-309.40649	1066.595	-121.66085	-706.42072	914.42938	14.75341	-718.15759	1000.6552	73.868614
442	2.2	-484.10251	149.28137	-553.60767	-514.54681	162.49866	-505.33664	-307.62042	566.60773	-508.82916	-387.72046	553.65546	-432.88312	-408.26633	993.40253	-743.48132	-528.7962	1191.7649	-454.42926	-267.77896	966.77875	-136.51093	-300.38419	1073.7852	-127.77361	-679.59637	927.70184	68.62822	-683.70819	1017.1677	122.0488
443	2.205	-486.61038	148.61484	-552.29901	-517.20856	161.54616	-504.3096	-309.96518	566.02032	-505.50943	-391.73993	553.13617	-430.08011	-412.21402	990.88629	-742.3725	-526.55432	1193.8241	-456.27933	-262.59326	973.97632	-138.85266	-294.13977	1080.4379	-133.34073	-648.03864	941.7182	118.21406	-644.20624	1033.6509	167.56519
444	2.21	-488.8649	147.97462	-551.08484	-519.57764	160.60837	-503.10303	-312.21817	565.33966	-502.02322	-394.87909	552.45465	-428.5386	-414.84445	989.11658	-740.55573	-525.38678	1195.5868	-458.74921	-260.41916	980.43256	-140.6443	-290.76886	1085.8403	-137.99153	-600.94775	949.57874	174.75589	-600.39398	1049.4058	210.00981
445	2.215	-490.85687	147.37758	-550.00983	-521.63098	159.79723	-501.99564	-314.99948	564.34149	-498.0119	-398.36566	551.67468	-426.39764	-416.42862	987.19843	-738.81897	-524.95642	1196.9103	-460.20868	-260.12808	986.11652	-141.78624	-290.19962	1090.4973	-141.3293	-564.75439	967.56665	213.02188	-551.68903	1065.8578	248.72008
446	2.22	-492.74741	146.62711	-548.83704	-523.54205	158.85213	-501.22577	-316.91104	563.69897	-494.5285	-401.24866	550.94702	-424.09344	-416.95557	985.68958	-736.39288	-525.7583	1197.2653	-463.13687	-262.5994	991.48303	-142.23982	-292.17191	1094.2463	-142.85518	-515.78906	982.90845	250.50839	-499.36972	1081.1614	282.51254
447	2.225	-494.12463	146.10295	-548.14819	-525.20441	157.97609	-500.51559	-318.64963	562.98431	-491.12399	-403.59372	550.28491	-421.75314	-416.85062	984.33234	-734.34271	-527.61902	1198.6014	-463.15033	-267.0116	995.97101	-141.58066	-296.18481	1096.5355	-142.32924	-462.10379	994.40729	281.90329	-443.20944	1095.0786	308.19855
